<svg width="16" height="58" viewBox="0 0 16 58" fill="none" xmlns="http://www.w3.org/2000/svg">
<path d="M1.74489 51.0553V40.8394H2.41974V51.0553H1.74489ZM5.29137 19.1684L5.91277 19.465L5.83179 19.6652L5.74217 19.8608L5.64499 20.0503L5.54025 20.2352L5.42957 20.4152L5.31296 20.5911L5.19095 20.7629L5.06462 20.9311L4.93451 21.0957L4.80169 21.2574L4.66564 21.416L4.52744 21.5723L4.38815 21.7268L4.24778 21.8784L4.10741 22.0287L3.96704 22.1773L3.82775 22.3247L3.69008 22.4709L3.55403 22.6165L3.42068 22.7615L3.29057 22.9059L3.16424 23.0497L3.04223 23.1936L2.92507 23.3368L2.81386 23.4794L2.70804 23.6226L2.6087 23.7659L2.51692 23.9091L2.4327 24.0523L2.35604 24.1955L2.28801 24.3394L2.22863 24.4844L1.60884 24.1837L1.68443 24L1.76919 23.8211L1.86205 23.6464L1.96246 23.4759L2.06936 23.3095L2.1822 23.146L2.30043 22.9856L2.42352 22.8275L2.55039 22.6718L2.68105 22.5184L2.8144 22.3669L2.94991 22.2165L3.08757 22.0674L3.22632 21.9188L3.36615 21.7708L3.50544 21.6234L3.64419 21.4761L3.78186 21.3281L3.91845 21.1801L4.05234 21.0321L4.18407 20.8829L4.31202 20.7338L4.4362 20.5828L4.55605 20.4313L4.6705 20.2785L4.77956 20.1246L4.88268 19.9689L4.97931 19.812L5.06894 19.6539L5.15154 19.4935L5.22604 19.3318L5.29245 19.1672L5.29137 19.1684ZM13.4149 25.8328H2.04453V25.0727H13.4149L13.7524 25.4525L13.4149 25.8322V25.8328ZM13.4149 25.0727H13.7524V25.4525L13.4149 25.0727ZM13.0775 37.7847V25.4531H13.7524V37.7847L13.4149 38.1645L13.0775 37.7847ZM13.7524 37.7847V38.1645H13.4149L13.7524 37.7847ZM2.04453 37.405H13.4149V38.1651H2.04453L1.7071 37.7853L2.04453 37.4055V37.405ZM2.04453 38.1651H1.7071V37.7853L2.04453 38.1651ZM2.38195 25.4531V37.7847H1.7071V25.4531L2.04453 25.0733L2.38195 25.4531ZM1.7071 25.4531V25.0733H2.04453L1.7071 25.4531ZM0.339045 56.6233H14.8364V57.3834H0.339045L0.00161957 57.0036L0.339045 56.6239V56.6233ZM0.339045 57.3834H0.00161957V57.0036L0.339045 57.3834ZM0.00161957 24.3322H0.67647V25.3503V26.3689V27.3881V28.4073V29.4271V30.4475V31.4679V32.4883V33.5093V34.5303V35.5519V36.5735V37.5951V38.6167V39.6383V40.6605V41.6827V42.7049V43.7271V44.7493V45.7714V46.7936V47.8158V48.8374V49.859V50.8806V51.9022V52.9232V53.9442V54.9652V55.9856V57.006H0.00161957V55.9856V54.9652V53.9442V52.9232V51.9022V50.8806V49.859V48.8374V47.8158V46.7936V45.7714V44.7493V43.7271V42.7049V41.6827V40.6605V39.6383V38.6167V37.5951V36.5735V35.5519V34.5303V33.5093V32.4883V31.4679V30.4475V29.4271V28.4073V27.3881V26.3689V25.3503V24.3322ZM5.24224 16.298V17.0581L5.57966 16.6783L5.56239 16.9665L5.51434 17.25L5.43767 17.5276L5.33672 17.798L5.21362 18.063L5.0711 18.3227L4.91183 18.5783L4.73745 18.8308L4.55011 19.0804L4.35143 19.3277L4.14304 19.5731L3.92709 19.8168L3.70466 20.0593L3.47791 20.3005L3.249 20.5406L3.01847 20.7801L2.78956 21.0179L2.56335 21.255L2.34146 21.4915L2.12605 21.7263L1.91873 21.9598L1.72168 22.1922L1.53704 22.4228L1.3659 22.651L1.20987 22.8768L1.07166 23.0991L0.952349 23.3178L0.853011 23.5317L0.775268 23.7397L0.71966 23.9424L0.686188 24.1385L0.67485 24.3305H0L0.0167362 24.041L0.0653259 23.757L0.141989 23.4788L0.242946 23.2072L0.366039 22.9416L0.508567 22.6807L0.667832 22.4245L0.841673 22.172L1.02901 21.9218L1.22823 21.674L1.43608 21.4285L1.65203 21.1843L1.87446 20.9412L2.10121 20.6999L2.33012 20.4598L2.56011 20.2203L2.78902 19.9826L3.01523 19.7455L3.23712 19.5095L3.45253 19.2748L3.65985 19.0412L3.85636 18.8095L4.04154 18.5795L4.21269 18.3512L4.36817 18.126L4.50638 17.9037L4.62569 17.6856L4.72503 17.4723L4.80223 17.2649L4.85784 17.0634L4.89131 16.8679L4.90265 16.6771L5.24008 16.2974L5.24224 16.298ZM4.90481 16.6777V16.298H5.24224L4.90481 16.6777ZM10.092 16.645H9.41713L9.75456 17.0248H9.4695L9.21252 17.0254L8.98091 17.026L8.77413 17.0266L8.59003 17.0272L8.42645 17.0283L8.28122 17.0295L8.15273 17.0307L8.03936 17.0319L7.93894 17.0331L7.8504 17.0343L7.7705 17.0361L7.69761 17.0373L7.63067 17.039L7.56696 17.0402L7.50596 17.042L7.44333 17.0438L7.37962 17.045L7.31106 17.0468L7.23763 17.048L7.15665 17.0497L7.06541 17.0509L6.96337 17.0521L6.84892 17.0533L6.71935 17.0545L6.57358 17.0557L6.40892 17.0569L6.2232 17.0575L6.01589 17.0581L5.78428 17.0587L5.52675 17.0592H5.24116V16.2991H5.52621L5.7832 16.2986L6.0148 16.298L6.22158 16.2974L6.40568 16.2968L6.56926 16.2956L6.71449 16.2944L6.84298 16.2932L6.9569 16.292L7.05677 16.2908L7.14531 16.2896L7.22522 16.2879L7.29756 16.2867L7.36451 16.2849L7.42821 16.2837L7.48922 16.2819L7.55184 16.2801L7.61555 16.2789L7.68357 16.2772L7.757 16.276L7.83798 16.2742L7.92922 16.273L8.03072 16.2718L8.14517 16.2706L8.27474 16.2694L8.42051 16.2682L8.58518 16.2671L8.77035 16.2665L8.97767 16.2659L9.20928 16.2653L9.4668 16.2647H9.7524L10.0898 16.6444L10.092 16.645ZM9.75456 16.2653H10.092V16.645L9.75456 16.2653ZM15.1733 24.2526H14.4985L14.4871 24.066L14.4526 23.874L14.3948 23.6755L14.3149 23.4699L14.2123 23.2583L14.0887 23.0414L13.9456 22.8209L13.7842 22.5963L13.6066 22.3693L13.4149 22.1399L13.2109 21.9087L12.996 21.6763L12.773 21.4422L12.543 21.2068L12.3087 20.9703L12.0712 20.7332L11.8326 20.4949L11.595 20.256L11.3602 20.0159L11.1302 19.7746L10.9061 19.5321L10.6902 19.2873L10.4845 19.0412L10.2907 18.7928L10.1103 18.542L9.94513 18.2877L9.79775 18.0291L9.66979 17.7653L9.56452 17.4955L9.48516 17.2191L9.43441 16.9356L9.41659 16.6468H10.0914L10.1028 16.8334L10.1373 17.0254L10.1951 17.2239L10.275 17.4295L10.3776 17.6411L10.5012 17.858L10.6443 18.0785L10.8057 18.3031L10.9833 18.5301L11.175 18.7595L11.3791 18.9907L11.5939 19.2231L11.8169 19.4572L12.0469 19.6926L12.2812 19.9291L12.5182 20.1662L12.7568 20.4045L12.9944 20.6434L13.2292 20.8835L13.4592 21.1248L13.6833 21.3673L13.8992 21.6121L14.1049 21.8582L14.2987 22.1066L14.479 22.3574L14.6443 22.6118L14.7916 22.8703L14.9196 23.1341L15.0249 23.4039L15.1042 23.6803L15.155 23.9638L15.1728 24.2526H15.1733ZM14.4985 57.0036V24.2526H15.1733V57.0036L14.8359 57.3834L14.4985 57.0036ZM15.1733 57.0036V57.3834H14.8359L15.1733 57.0036ZM5.57912 6.19494V16.6777H4.90427V6.19494L5.2417 5.81518L5.57912 6.19494ZM4.90427 6.19494V5.81518H5.2417L4.90427 6.19494ZM9.75402 6.57469H5.24116V5.81459H9.75402L10.0914 6.19434L9.75402 6.5741V6.57469ZM9.75402 5.81459H10.0914V6.19434L9.75402 5.81459ZM9.41659 16.6444V6.19434H10.0914V16.6444H9.41659ZM4.80277 5.31776L5.45117 5.8966L5.03222 6.49268L4.38383 5.91383L4.25588 5.61669L4.80277 5.31776ZM4.38383 5.91383L4.25642 5.80032L4.25588 5.61669L4.38383 5.91383ZM4.92803 4.36629L4.93073 5.6149L4.25588 5.61669L4.25318 4.36807L4.40002 4.05369L4.92803 4.36629ZM4.25318 4.36807L4.25264 4.1672L4.39948 4.05369L4.25264 4.36807H4.25318ZM5.43228 4.1773L4.78118 4.68067L4.40002 4.05369L5.05112 3.55032L5.2417 3.48376L5.43228 4.1773ZM5.05112 3.55032L5.13696 3.48376H5.2417L5.05112 3.55032ZM9.75456 4.24386H5.2417V3.48376H9.75456L9.94513 3.55032L9.75456 4.24386ZM9.75456 3.48376H9.85929L9.94513 3.55032L9.75456 3.48376ZM10.2113 4.6777L9.56344 4.1773L9.94459 3.55032L10.5924 4.05072L10.7393 4.36391L10.2113 4.6771V4.6777ZM10.5924 4.05072L10.7393 4.16423V4.36451L10.5924 4.05131V4.05072ZM10.0644 5.6155V4.36391H10.7393V5.6155L10.6113 5.91324L10.0644 5.6155ZM10.7393 5.6155V5.79913L10.6113 5.91324L10.7393 5.6155ZM9.54508 5.8966L10.1929 5.31776L10.6119 5.91324L9.96403 6.49208L9.54508 5.8966ZM6.22374 0.380349V3.86292H5.54889V0.380349L5.88631 0.000594295L6.22374 0.380349ZM5.54889 0.380349V0.000594295H5.88631L5.54889 0.380349ZM9.1094 0.760104H5.88631V0H9.1094L9.44682 0.379755L9.1094 0.75951V0.760104ZM9.1094 0H9.44682V0.379755L9.1094 0ZM8.77197 3.86292V0.380349H9.44682V3.86292H8.77197Z" fill="#7DA00C"/>
</svg>
